<?xml version="1.0" encoding="UTF-8" standalone="no"?>
<!-- Created with Inkscape (http://www.inkscape.org/) -->

<svg
   width="396.28531mm"
   height="123.04221mm"
   viewBox="0 0 396.2853 123.04221"
   version="1.1"
   id="svg5"
   sodipodi:docname="background_ampersKnot.svg"
   inkscape:version="1.1.1 (c3084ef, 2021-09-22)"
   inkscape:export-filename="/Users/seanroberts/Documents/DnDCymraeg/background_ampersKnot.png"
   inkscape:export-xdpi="19.19829"
   inkscape:export-ydpi="19.19829"
   xmlns:inkscape="http://www.inkscape.org/namespaces/inkscape"
   xmlns:sodipodi="http://sodipodi.sourceforge.net/DTD/sodipodi-0.dtd"
   xmlns="http://www.w3.org/2000/svg"
   xmlns:svg="http://www.w3.org/2000/svg">
  <sodipodi:namedview
     id="namedview7"
     pagecolor="#ffffff"
     bordercolor="#666666"
     borderopacity="1.0"
     inkscape:pageshadow="2"
     inkscape:pageopacity="0.0"
     inkscape:pagecheckerboard="0"
     inkscape:document-units="mm"
     showgrid="false"
     inkscape:snap-global="false"
     fit-margin-left="20"
     fit-margin-right="20"
     fit-margin-top="0"
     fit-margin-bottom="0"
     inkscape:zoom="0.46713112"
     inkscape:cx="595.12199"
     inkscape:cy="412.08987"
     inkscape:window-width="1920"
     inkscape:window-height="1027"
     inkscape:window-x="0"
     inkscape:window-y="25"
     inkscape:window-maximized="1"
     inkscape:current-layer="layer1" />
  <defs
     id="defs2">
    <rect
       x="79.517334"
       y="274.33481"
       width="221.32324"
       height="324.69577"
       id="rect1640" />
    <rect
       x="79.517334"
       y="274.33481"
       width="221.32324"
       height="324.69577"
       id="rect3268" />
    <rect
       x="79.517334"
       y="274.33481"
       width="221.32324"
       height="324.69577"
       id="rect3278" />
    <rect
       x="79.517334"
       y="274.33481"
       width="221.32324"
       height="324.69577"
       id="rect3280" />
  </defs>
  <g
     inkscape:label="Layer 1"
     inkscape:groupmode="layer"
     id="layer1"
     transform="translate(-1.0927341,-61.250402)">
    <path
       style="fill:#e8e8e8;fill-opacity:1;stroke:none;stroke-width:0.264583px;stroke-linecap:butt;stroke-linejoin:miter;stroke-opacity:1"
       d="m 86.781287,139.5939 17.232283,19.95969 c 13.95686,-14.41184 14.71824,-40.5802 20.70354,-54.30028 2.2522,-5.16271 12.0506,-12.935617 17.83323,-17.833785 2.88527,-2.279926 6.82204,-3.929294 10.79763,-3.855033 11.02716,1.124719 13.01368,14.003679 7.30582,20.748708 l 13.79229,16.11398 c 26.91386,-18.08936 19.27617,-59.044487 -18.45588,-59.044487 -12.85514,0.04345 -21.75461,3.940889 -29.74344,9.793903 -7.98883,5.853014 -15.20477,11.282351 -17.07343,15.57941 C 97.542054,113.50255 96.685556,128.20931 86.781287,139.5939 Z"
       id="path4528"
       sodipodi:nodetypes="ccsccccczsc" />
    <path
       style="fill:#e8e8e8;stroke:none;stroke-width:0.264583px;stroke-linecap:butt;stroke-linejoin:miter;stroke-opacity:1;fill-opacity:1"
       d="m 59.610389,111.85714 c 13.182828,-10.20579 6.388659,-18.48529 1.271079,-18.48529 -5.565382,0 -11.391704,4.090155 -4.076274,16.09456 L 37.51948,121.17943 C 17.570516,87.19065 43.671875,74.512985 60.662335,74.512985 c 16.99046,0 29.279223,7.97533 29.279223,26.824675 0.02285,12.4743 -8.107502,19.06016 -16.305194,25.5974 l -20.337663,12.44806 c -12.750379,9.17191 -2.184502,29.40084 14.025973,19.987 l 14.376625,17.53247 C 61.785625,189.34674 37.090626,184.79065 26.64935,170.76623 16.208074,156.7418 20.940027,134.41785 39.974025,123.42857 Z"
       id="path3315"
       sodipodi:nodetypes="cscczccccczcc" />
    <path
       style="fill:#e8e8e8;stroke:none;stroke-width:0.264583px;stroke-linecap:butt;stroke-linejoin:miter;stroke-opacity:1;fill-opacity:1"
       d="m 55.753245,142.36364 19.461041,-11.92208 44.934474,53.85506 H 92.146644 Z"
       id="path4493"
       sodipodi:nodetypes="ccccc" />
    <path
       style="fill:#e8e8e8;stroke:none;stroke-width:0.264583px;stroke-linecap:butt;stroke-linejoin:miter;stroke-opacity:1;fill-opacity:1"
       d="m 143.41558,89.240258 -16.12987,16.305192 11.57143,12.09741 13.67533,15.69155 c 11.04926,12.63827 3.3039,18.87525 -1.36818,18.87525 -4.67208,0 -11.21672,-7.10108 -0.91104,-17.73563 l -14.02598,-15.25325 c -26.94659,26.6471 -13.08544,51.74205 14.44925,51.74205 27.53468,0 40.59849,-25.77926 21.84296,-49.11218 l -14.2013,-15.6039 z"
       id="path7298"
       sodipodi:nodetypes="cccczcczccc" />
    <path
       style="fill:#e8e8e8;stroke:none;stroke-width:0.264583px;stroke-linecap:butt;stroke-linejoin:miter;stroke-opacity:1;fill-opacity:1"
       d="M 125.18182,69.077921 108.10635,82.18473 92.2299,61.39189 l 27.44241,0.05135 z"
       id="path8069"
       sodipodi:nodetypes="ccccc" />
    <path
       style="fill:#e8e8e8;fill-opacity:1;stroke:none;stroke-width:0.264583px;stroke-linecap:butt;stroke-linejoin:miter;stroke-opacity:1"
       d="m 86.781287,139.5939 17.232283,19.95969 c 13.95686,-14.41184 14.71824,-40.5802 20.70354,-54.30028 2.2522,-5.16271 12.0506,-12.935617 17.83323,-17.833785 2.88527,-2.279926 6.82204,-3.929294 10.79763,-3.855033 11.02716,1.124719 13.01368,14.003679 7.30582,20.748708 l 13.79229,16.11398 c 26.91386,-18.08936 19.27617,-59.044487 -18.45588,-59.044487 -12.85514,0.04345 -21.75461,3.940889 -29.74344,9.793903 -7.98883,5.853014 -15.20477,11.282351 -17.07343,15.57941 C 97.542054,113.50255 96.685556,128.20931 86.781287,139.5939 Z"
       id="path2931"
       sodipodi:nodetypes="ccsccccczsc" />
    <path
       style="fill:#e8e8e8;stroke:none;stroke-width:0.264583px;stroke-linecap:butt;stroke-linejoin:miter;stroke-opacity:1;fill-opacity:1"
       d="m 59.610389,111.85714 c 13.182828,-10.20579 6.388659,-18.48529 1.271079,-18.48529 -5.565382,0 -11.391704,4.090155 -4.076274,16.09456 L 37.51948,121.17943 C 17.570516,87.19065 43.671875,74.512985 60.662335,74.512985 c 16.99046,0 29.279223,7.97533 29.279223,26.824675 0.02285,12.4743 -8.107502,19.06016 -16.305194,25.5974 l -20.337663,12.44806 c -12.750379,9.17191 -2.184502,29.40084 14.025973,19.987 l 14.376625,17.53247 C 61.785625,189.34674 37.090626,184.79065 26.64935,170.76623 16.208074,156.7418 20.940027,134.41785 39.974025,123.42857 Z"
       id="path2933"
       sodipodi:nodetypes="cscczccccczcc" />
    <path
       style="fill:#e8e8e8;stroke:none;stroke-width:0.264583px;stroke-linecap:butt;stroke-linejoin:miter;stroke-opacity:1;fill-opacity:1"
       d="m 55.753245,142.36364 19.461041,-11.92208 44.934474,53.85506 H 92.146644 Z"
       id="path2935"
       sodipodi:nodetypes="ccccc" />
    <path
       style="fill:#e8e8e8;stroke:none;stroke-width:0.264583px;stroke-linecap:butt;stroke-linejoin:miter;stroke-opacity:1;fill-opacity:1"
       d="m 143.41558,89.240258 -16.12987,16.305192 11.57143,12.09741 13.67533,15.69155 c 11.04926,12.63827 3.3039,18.87525 -1.36818,18.87525 -4.67208,0 -11.21672,-7.10108 -0.91104,-17.73563 l -14.02598,-15.25325 c -26.94659,26.6471 -13.08544,51.74205 14.44925,51.74205 27.53468,0 40.59849,-25.77926 21.84296,-49.11218 l -14.2013,-15.6039 z"
       id="path2937"
       sodipodi:nodetypes="cccczcczccc" />
    <path
       style="fill:#e8e8e8;stroke:none;stroke-width:0.264583px;stroke-linecap:butt;stroke-linejoin:miter;stroke-opacity:1;fill-opacity:1"
       d="M 125.18182,69.077921 108.10635,82.18473 92.2299,61.39189 l 27.44241,0.05135 z"
       id="path2939"
       sodipodi:nodetypes="ccccc" />
    <g
       id="g2971"
       transform="translate(0,122.90992)"
       style="fill:#e8e8e8;fill-opacity:1">
      <path
         style="fill:#e8e8e8;fill-opacity:1;stroke:none;stroke-width:0.264583px;stroke-linecap:butt;stroke-linejoin:miter;stroke-opacity:1"
         d="m 86.781287,139.5939 17.232283,19.95969 c 13.95686,-14.41184 14.71824,-40.5802 20.70354,-54.30028 2.2522,-5.16271 12.0506,-12.935617 17.83323,-17.833785 2.88527,-2.279926 6.82204,-3.929294 10.79763,-3.855033 11.02716,1.124719 13.01368,14.003679 7.30582,20.748708 l 13.79229,16.11398 c 26.91386,-18.08936 19.27617,-59.044487 -18.45588,-59.044487 -12.85514,0.04345 -21.75461,3.940889 -29.74344,9.793903 -7.98883,5.853014 -15.20477,11.282351 -17.07343,15.57941 C 97.542054,113.50255 96.685556,128.20931 86.781287,139.5939 Z"
         id="path2941"
         sodipodi:nodetypes="ccsccccczsc" />
      <path
         style="fill:#e8e8e8;stroke:none;stroke-width:0.264583px;stroke-linecap:butt;stroke-linejoin:miter;stroke-opacity:1;fill-opacity:1"
         d="m 59.610389,111.85714 c 13.182828,-10.20579 6.388659,-18.48529 1.271079,-18.48529 -5.565382,0 -11.391704,4.090155 -4.076274,16.09456 L 37.51948,121.17943 C 17.570516,87.19065 43.671875,74.512985 60.662335,74.512985 c 16.99046,0 29.279223,7.97533 29.279223,26.824675 0.02285,12.4743 -8.107502,19.06016 -16.305194,25.5974 l -20.337663,12.44806 c -12.750379,9.17191 -2.184502,29.40084 14.025973,19.987 l 14.376625,17.53247 C 61.785625,189.34674 37.090626,184.79065 26.64935,170.76623 16.208074,156.7418 20.940027,134.41785 39.974025,123.42857 Z"
         id="path2943"
         sodipodi:nodetypes="cscczccccczcc" />
      <path
         style="fill:#e8e8e8;stroke:none;stroke-width:0.264583px;stroke-linecap:butt;stroke-linejoin:miter;stroke-opacity:1;fill-opacity:1"
         d="m 55.753245,142.36364 19.461041,-11.92208 44.934474,53.85506 H 92.146644 Z"
         id="path2945"
         sodipodi:nodetypes="ccccc" />
      <path
         style="fill:#e8e8e8;stroke:none;stroke-width:0.264583px;stroke-linecap:butt;stroke-linejoin:miter;stroke-opacity:1;fill-opacity:1"
         d="m 143.41558,89.240258 -16.12987,16.305192 11.57143,12.09741 13.67533,15.69155 c 11.04926,12.63827 3.3039,18.87525 -1.36818,18.87525 -4.67208,0 -11.21672,-7.10108 -0.91104,-17.73563 l -14.02598,-15.25325 c -26.94659,26.6471 -13.08544,51.74205 14.44925,51.74205 27.53468,0 40.59849,-25.77926 21.84296,-49.11218 l -14.2013,-15.6039 z"
         id="path2947"
         sodipodi:nodetypes="cccczcczccc" />
      <path
         style="fill:#e8e8e8;stroke:none;stroke-width:0.264583px;stroke-linecap:butt;stroke-linejoin:miter;stroke-opacity:1;fill-opacity:1"
         d="M 125.18182,69.077921 108.10635,82.18473 92.2299,61.39189 l 27.44241,0.05135 z"
         id="path2949"
         sodipodi:nodetypes="ccccc" />
      <path
         style="fill:#e8e8e8;fill-opacity:1;stroke:none;stroke-width:0.264583px;stroke-linecap:butt;stroke-linejoin:miter;stroke-opacity:1"
         d="m 86.781287,139.5939 17.232283,19.95969 c 13.95686,-14.41184 14.71824,-40.5802 20.70354,-54.30028 2.2522,-5.16271 12.0506,-12.935617 17.83323,-17.833785 2.88527,-2.279926 6.82204,-3.929294 10.79763,-3.855033 11.02716,1.124719 13.01368,14.003679 7.30582,20.748708 l 13.79229,16.11398 c 26.91386,-18.08936 19.27617,-59.044487 -18.45588,-59.044487 -12.85514,0.04345 -21.75461,3.940889 -29.74344,9.793903 -7.98883,5.853014 -15.20477,11.282351 -17.07343,15.57941 C 97.542054,113.50255 96.685556,128.20931 86.781287,139.5939 Z"
         id="path2951"
         sodipodi:nodetypes="ccsccccczsc" />
      <path
         style="fill:#e8e8e8;stroke:none;stroke-width:0.264583px;stroke-linecap:butt;stroke-linejoin:miter;stroke-opacity:1;fill-opacity:1"
         d="m 59.610389,111.85714 c 13.182828,-10.20579 6.388659,-18.48529 1.271079,-18.48529 -5.565382,0 -11.391704,4.090155 -4.076274,16.09456 L 37.51948,121.17943 C 17.570516,87.19065 43.671875,74.512985 60.662335,74.512985 c 16.99046,0 29.279223,7.97533 29.279223,26.824675 0.02285,12.4743 -8.107502,19.06016 -16.305194,25.5974 l -20.337663,12.44806 c -12.750379,9.17191 -2.184502,29.40084 14.025973,19.987 l 14.376625,17.53247 C 61.785625,189.34674 37.090626,184.79065 26.64935,170.76623 16.208074,156.7418 20.940027,134.41785 39.974025,123.42857 Z"
         id="path2953"
         sodipodi:nodetypes="cscczccccczcc" />
      <path
         style="fill:#e8e8e8;stroke:none;stroke-width:0.264583px;stroke-linecap:butt;stroke-linejoin:miter;stroke-opacity:1;fill-opacity:1"
         d="m 55.753245,142.36364 19.461041,-11.92208 44.934474,53.85506 H 92.146644 Z"
         id="path2955"
         sodipodi:nodetypes="ccccc" />
      <path
         style="fill:#e8e8e8;stroke:none;stroke-width:0.264583px;stroke-linecap:butt;stroke-linejoin:miter;stroke-opacity:1;fill-opacity:1"
         d="m 143.41558,89.240258 -16.12987,16.305192 11.57143,12.09741 13.67533,15.69155 c 11.04926,12.63827 3.3039,18.87525 -1.36818,18.87525 -4.67208,0 -11.21672,-7.10108 -0.91104,-17.73563 l -14.02598,-15.25325 c -26.94659,26.6471 -13.08544,51.74205 14.44925,51.74205 27.53468,0 40.59849,-25.77926 21.84296,-49.11218 l -14.2013,-15.6039 z"
         id="path2957"
         sodipodi:nodetypes="cccczcczccc" />
      <path
         style="fill:#e8e8e8;stroke:none;stroke-width:0.264583px;stroke-linecap:butt;stroke-linejoin:miter;stroke-opacity:1;fill-opacity:1"
         d="M 125.18182,69.077921 108.10635,82.18473 92.2299,61.39189 l 27.44241,0.05135 z"
         id="path2959"
         sodipodi:nodetypes="ccccc" />
    </g>
    <g
       id="g2993"
       transform="translate(0,-123.04622)"
       style="fill:#e8e8e8;fill-opacity:1">
      <path
         style="fill:#e8e8e8;fill-opacity:1;stroke:none;stroke-width:0.264583px;stroke-linecap:butt;stroke-linejoin:miter;stroke-opacity:1"
         d="m 86.781287,139.5939 17.232283,19.95969 c 13.95686,-14.41184 14.71824,-40.5802 20.70354,-54.30028 2.2522,-5.16271 12.0506,-12.935617 17.83323,-17.833785 2.88527,-2.279926 6.82204,-3.929294 10.79763,-3.855033 11.02716,1.124719 13.01368,14.003679 7.30582,20.748708 l 13.79229,16.11398 c 26.91386,-18.08936 19.27617,-59.044487 -18.45588,-59.044487 -12.85514,0.04345 -21.75461,3.940889 -29.74344,9.793903 -7.98883,5.853014 -15.20477,11.282351 -17.07343,15.57941 C 97.542054,113.50255 96.685556,128.20931 86.781287,139.5939 Z"
         id="path2973"
         sodipodi:nodetypes="ccsccccczsc" />
      <path
         style="fill:#e8e8e8;stroke:none;stroke-width:0.264583px;stroke-linecap:butt;stroke-linejoin:miter;stroke-opacity:1;fill-opacity:1"
         d="m 59.610389,111.85714 c 13.182828,-10.20579 6.388659,-18.48529 1.271079,-18.48529 -5.565382,0 -11.391704,4.090155 -4.076274,16.09456 L 37.51948,121.17943 C 17.570516,87.19065 43.671875,74.512985 60.662335,74.512985 c 16.99046,0 29.279223,7.97533 29.279223,26.824675 0.02285,12.4743 -8.107502,19.06016 -16.305194,25.5974 l -20.337663,12.44806 c -12.750379,9.17191 -2.184502,29.40084 14.025973,19.987 l 14.376625,17.53247 C 61.785625,189.34674 37.090626,184.79065 26.64935,170.76623 16.208074,156.7418 20.940027,134.41785 39.974025,123.42857 Z"
         id="path2975"
         sodipodi:nodetypes="cscczccccczcc" />
      <path
         style="fill:#e8e8e8;stroke:none;stroke-width:0.264583px;stroke-linecap:butt;stroke-linejoin:miter;stroke-opacity:1;fill-opacity:1"
         d="m 55.753245,142.36364 19.461041,-11.92208 44.934474,53.85506 H 92.146644 Z"
         id="path2977"
         sodipodi:nodetypes="ccccc" />
      <path
         style="fill:#e8e8e8;stroke:none;stroke-width:0.264583px;stroke-linecap:butt;stroke-linejoin:miter;stroke-opacity:1;fill-opacity:1"
         d="m 143.41558,89.240258 -16.12987,16.305192 11.57143,12.09741 13.67533,15.69155 c 11.04926,12.63827 3.3039,18.87525 -1.36818,18.87525 -4.67208,0 -11.21672,-7.10108 -0.91104,-17.73563 l -14.02598,-15.25325 c -26.94659,26.6471 -13.08544,51.74205 14.44925,51.74205 27.53468,0 40.59849,-25.77926 21.84296,-49.11218 l -14.2013,-15.6039 z"
         id="path2979"
         sodipodi:nodetypes="cccczcczccc" />
      <path
         style="fill:#e8e8e8;stroke:none;stroke-width:0.264583px;stroke-linecap:butt;stroke-linejoin:miter;stroke-opacity:1;fill-opacity:1"
         d="M 125.18182,69.077921 108.10635,82.18473 92.2299,61.39189 l 27.44241,0.05135 z"
         id="path2981"
         sodipodi:nodetypes="ccccc" />
      <path
         style="fill:#e8e8e8;fill-opacity:1;stroke:none;stroke-width:0.264583px;stroke-linecap:butt;stroke-linejoin:miter;stroke-opacity:1"
         d="m 86.781287,139.5939 17.232283,19.95969 c 13.95686,-14.41184 14.71824,-40.5802 20.70354,-54.30028 2.2522,-5.16271 12.0506,-12.935617 17.83323,-17.833785 2.88527,-2.279926 6.82204,-3.929294 10.79763,-3.855033 11.02716,1.124719 13.01368,14.003679 7.30582,20.748708 l 13.79229,16.11398 c 26.91386,-18.08936 19.27617,-59.044487 -18.45588,-59.044487 -12.85514,0.04345 -21.75461,3.940889 -29.74344,9.793903 -7.98883,5.853014 -15.20477,11.282351 -17.07343,15.57941 C 97.542054,113.50255 96.685556,128.20931 86.781287,139.5939 Z"
         id="path2983"
         sodipodi:nodetypes="ccsccccczsc" />
      <path
         style="fill:#e8e8e8;stroke:none;stroke-width:0.264583px;stroke-linecap:butt;stroke-linejoin:miter;stroke-opacity:1;fill-opacity:1"
         d="m 59.610389,111.85714 c 13.182828,-10.20579 6.388659,-18.48529 1.271079,-18.48529 -5.565382,0 -11.391704,4.090155 -4.076274,16.09456 L 37.51948,121.17943 C 17.570516,87.19065 43.671875,74.512985 60.662335,74.512985 c 16.99046,0 29.279223,7.97533 29.279223,26.824675 0.02285,12.4743 -8.107502,19.06016 -16.305194,25.5974 l -20.337663,12.44806 c -12.750379,9.17191 -2.184502,29.40084 14.025973,19.987 l 14.376625,17.53247 C 61.785625,189.34674 37.090626,184.79065 26.64935,170.76623 16.208074,156.7418 20.940027,134.41785 39.974025,123.42857 Z"
         id="path2985"
         sodipodi:nodetypes="cscczccccczcc" />
      <path
         style="fill:#e8e8e8;stroke:none;stroke-width:0.264583px;stroke-linecap:butt;stroke-linejoin:miter;stroke-opacity:1;fill-opacity:1"
         d="m 55.753245,142.36364 19.461041,-11.92208 44.934474,53.85506 H 92.146644 Z"
         id="path2987"
         sodipodi:nodetypes="ccccc" />
      <path
         style="fill:#e8e8e8;stroke:none;stroke-width:0.264583px;stroke-linecap:butt;stroke-linejoin:miter;stroke-opacity:1;fill-opacity:1"
         d="m 143.41558,89.240258 -16.12987,16.305192 11.57143,12.09741 13.67533,15.69155 c 11.04926,12.63827 3.3039,18.87525 -1.36818,18.87525 -4.67208,0 -11.21672,-7.10108 -0.91104,-17.73563 l -14.02598,-15.25325 c -26.94659,26.6471 -13.08544,51.74205 14.44925,51.74205 27.53468,0 40.59849,-25.77926 21.84296,-49.11218 l -14.2013,-15.6039 z"
         id="path2989"
         sodipodi:nodetypes="cccczcczccc" />
      <path
         style="fill:#e8e8e8;stroke:none;stroke-width:0.264583px;stroke-linecap:butt;stroke-linejoin:miter;stroke-opacity:1;fill-opacity:1"
         d="M 125.18182,69.077921 108.10635,82.18473 92.2299,61.39189 l 27.44241,0.05135 z"
         id="path2991"
         sodipodi:nodetypes="ccccc" />
    </g>
    <path
       style="fill:#e8e8e8;fill-opacity:1;stroke:none;stroke-width:0.264583px;stroke-linecap:butt;stroke-linejoin:miter;stroke-opacity:1"
       d="m 277.6503,179.64447 17.23228,19.95969 c 13.95686,-14.41184 14.71824,-40.5802 20.70354,-54.30028 2.2522,-5.16271 12.0506,-12.93562 17.83323,-17.83379 2.88527,-2.27992 6.82204,-3.92929 10.79763,-3.85503 11.02716,1.12472 13.01368,14.00368 7.30582,20.74871 l 13.79229,16.11398 c 26.91386,-18.08936 19.27617,-59.04449 -18.45588,-59.04449 -12.85514,0.0434 -21.75461,3.94089 -29.74344,9.7939 -7.98883,5.85302 -15.20477,11.28236 -17.07343,15.57941 -11.63128,26.74655 -12.48777,41.45331 -22.39204,52.8379 z"
       id="path2995"
       sodipodi:nodetypes="ccsccccczsc" />
    <path
       style="fill:#e8e8e8;fill-opacity:1;stroke:none;stroke-width:0.264583px;stroke-linecap:butt;stroke-linejoin:miter;stroke-opacity:1"
       d="m 250.4794,151.90771 c 13.18283,-10.20579 6.38866,-18.48529 1.27108,-18.48529 -5.56538,0 -11.39171,4.09015 -4.07628,16.09456 L 228.38849,161.23 c -19.94896,-33.98878 6.1524,-46.66645 23.14286,-46.66645 16.99046,0 29.27922,7.97533 29.27922,26.82468 0.0229,12.4743 -8.1075,19.06016 -16.3052,25.5974 l -20.33766,12.44806 c -12.75038,9.17191 -2.1845,29.40084 14.02597,19.987 l 14.37663,17.53247 c -19.91567,12.44415 -44.61067,7.88806 -55.05195,-6.13636 -10.44128,-14.02443 -5.70932,-36.34838 13.32468,-47.33766 z"
       id="path2997"
       sodipodi:nodetypes="cscczccccczcc" />
    <path
       style="fill:#e8e8e8;fill-opacity:1;stroke:none;stroke-width:0.264583px;stroke-linecap:butt;stroke-linejoin:miter;stroke-opacity:1"
       d="m 246.62226,182.41421 19.46104,-11.92208 44.93447,53.85506 h -28.00212 z"
       id="path2999"
       sodipodi:nodetypes="ccccc" />
    <path
       style="fill:#e8e8e8;fill-opacity:1;stroke:none;stroke-width:0.264583px;stroke-linecap:butt;stroke-linejoin:miter;stroke-opacity:1"
       d="m 334.28459,129.29083 -16.12987,16.30519 11.57143,12.09741 13.67533,15.69155 c 11.04926,12.63827 3.3039,18.87525 -1.36818,18.87525 -4.67208,0 -11.21672,-7.10108 -0.91104,-17.73563 l -14.02598,-15.25325 c -26.94659,26.6471 -13.08544,51.74205 14.44925,51.74205 27.53468,0 40.59849,-25.77926 21.84296,-49.11218 l -14.2013,-15.6039 z"
       id="path3001"
       sodipodi:nodetypes="cccczcczccc" />
    <path
       style="fill:#e8e8e8;fill-opacity:1;stroke:none;stroke-width:0.264583px;stroke-linecap:butt;stroke-linejoin:miter;stroke-opacity:1"
       d="m 316.05083,109.12849 -17.07547,13.10681 -15.87645,-20.79284 27.44241,0.0513 z"
       id="path3003"
       sodipodi:nodetypes="ccccc" />
    <path
       style="fill:#e8e8e8;fill-opacity:1;stroke:none;stroke-width:0.264583px;stroke-linecap:butt;stroke-linejoin:miter;stroke-opacity:1"
       d="m 277.6503,179.64447 17.23228,19.95969 c 13.95686,-14.41184 14.71824,-40.5802 20.70354,-54.30028 2.2522,-5.16271 12.0506,-12.93562 17.83323,-17.83379 2.88527,-2.27992 6.82204,-3.92929 10.79763,-3.85503 11.02716,1.12472 13.01368,14.00368 7.30582,20.74871 l 13.79229,16.11398 c 26.91386,-18.08936 19.27617,-59.04449 -18.45588,-59.04449 -12.85514,0.0434 -21.75461,3.94089 -29.74344,9.7939 -7.98883,5.85302 -15.20477,11.28236 -17.07343,15.57941 -11.63128,26.74655 -12.48777,41.45331 -22.39204,52.8379 z"
       id="path3005"
       sodipodi:nodetypes="ccsccccczsc" />
    <path
       style="fill:#e8e8e8;fill-opacity:1;stroke:none;stroke-width:0.264583px;stroke-linecap:butt;stroke-linejoin:miter;stroke-opacity:1"
       d="m 250.4794,151.90771 c 13.18283,-10.20579 6.38866,-18.48529 1.27108,-18.48529 -5.56538,0 -11.39171,4.09015 -4.07628,16.09456 L 228.38849,161.23 c -19.94896,-33.98878 6.1524,-46.66645 23.14286,-46.66645 16.99046,0 29.27922,7.97533 29.27922,26.82468 0.0229,12.4743 -8.1075,19.06016 -16.3052,25.5974 l -20.33766,12.44806 c -12.75038,9.17191 -2.1845,29.40084 14.02597,19.987 l 14.37663,17.53247 c -19.91567,12.44415 -44.61067,7.88806 -55.05195,-6.13636 -10.44128,-14.02443 -5.70932,-36.34838 13.32468,-47.33766 z"
       id="path3007"
       sodipodi:nodetypes="cscczccccczcc" />
    <path
       style="fill:#e8e8e8;fill-opacity:1;stroke:none;stroke-width:0.264583px;stroke-linecap:butt;stroke-linejoin:miter;stroke-opacity:1"
       d="m 246.62226,182.41421 19.46104,-11.92208 44.93447,53.85506 h -28.00212 z"
       id="path3009"
       sodipodi:nodetypes="ccccc" />
    <path
       style="fill:#e8e8e8;fill-opacity:1;stroke:none;stroke-width:0.264583px;stroke-linecap:butt;stroke-linejoin:miter;stroke-opacity:1"
       d="m 334.28459,129.29083 -16.12987,16.30519 11.57143,12.09741 13.67533,15.69155 c 11.04926,12.63827 3.3039,18.87525 -1.36818,18.87525 -4.67208,0 -11.21672,-7.10108 -0.91104,-17.73563 l -14.02598,-15.25325 c -26.94659,26.6471 -13.08544,51.74205 14.44925,51.74205 27.53468,0 40.59849,-25.77926 21.84296,-49.11218 l -14.2013,-15.6039 z"
       id="path3011"
       sodipodi:nodetypes="cccczcczccc" />
    <path
       style="fill:#e8e8e8;fill-opacity:1;stroke:none;stroke-width:0.264583px;stroke-linecap:butt;stroke-linejoin:miter;stroke-opacity:1"
       d="m 316.05083,109.12849 -17.07547,13.10681 -16.12677,-20.8429 27.69273,0.10136 z"
       id="path3013"
       sodipodi:nodetypes="ccccc" />
    <g
       id="g3035"
       transform="translate(190.86901,162.96049)"
       style="fill:#e8e8e8;fill-opacity:1">
      <path
         style="fill:#e8e8e8;fill-opacity:1;stroke:none;stroke-width:0.264583px;stroke-linecap:butt;stroke-linejoin:miter;stroke-opacity:1"
         d="m 86.781287,139.5939 17.232283,19.95969 c 13.95686,-14.41184 14.71824,-40.5802 20.70354,-54.30028 2.2522,-5.16271 12.0506,-12.935617 17.83323,-17.833785 2.88527,-2.279926 6.82204,-3.929294 10.79763,-3.855033 11.02716,1.124719 13.01368,14.003679 7.30582,20.748708 l 13.79229,16.11398 c 26.91386,-18.08936 19.27617,-59.044487 -18.45588,-59.044487 -12.85514,0.04345 -21.75461,3.940889 -29.74344,9.793903 -7.98883,5.853014 -15.20477,11.282351 -17.07343,15.57941 C 97.542054,113.50255 96.685556,128.20931 86.781287,139.5939 Z"
         id="path3015"
         sodipodi:nodetypes="ccsccccczsc" />
      <path
         style="fill:#e8e8e8;fill-opacity:1;stroke:none;stroke-width:0.264583px;stroke-linecap:butt;stroke-linejoin:miter;stroke-opacity:1"
         d="m 59.610389,111.85714 c 13.182828,-10.20579 6.388659,-18.48529 1.271079,-18.48529 -5.565382,0 -11.391704,4.090155 -4.076274,16.09456 L 37.51948,121.17943 C 17.570516,87.19065 43.671875,74.512985 60.662335,74.512985 c 16.99046,0 29.279223,7.97533 29.279223,26.824675 0.02285,12.4743 -8.107502,19.06016 -16.305194,25.5974 l -20.337663,12.44806 c -12.750379,9.17191 -2.184502,29.40084 14.025973,19.987 l 14.376625,17.53247 C 61.785625,189.34674 37.090626,184.79065 26.64935,170.76623 16.208074,156.7418 20.940027,134.41785 39.974025,123.42857 Z"
         id="path3017"
         sodipodi:nodetypes="cscczccccczcc" />
      <path
         style="fill:#e8e8e8;fill-opacity:1;stroke:none;stroke-width:0.264583px;stroke-linecap:butt;stroke-linejoin:miter;stroke-opacity:1"
         d="m 55.753245,142.36364 19.461041,-11.92208 44.934474,53.85506 H 92.146644 Z"
         id="path3019"
         sodipodi:nodetypes="ccccc" />
      <path
         style="fill:#e8e8e8;fill-opacity:1;stroke:none;stroke-width:0.264583px;stroke-linecap:butt;stroke-linejoin:miter;stroke-opacity:1"
         d="m 143.41558,89.240258 -16.12987,16.305192 11.57143,12.09741 13.67533,15.69155 c 11.04926,12.63827 3.3039,18.87525 -1.36818,18.87525 -4.67208,0 -11.21672,-7.10108 -0.91104,-17.73563 l -14.02598,-15.25325 c -26.94659,26.6471 -13.08544,51.74205 14.44925,51.74205 27.53468,0 40.59849,-25.77926 21.84296,-49.11218 l -14.2013,-15.6039 z"
         id="path3021"
         sodipodi:nodetypes="cccczcczccc" />
      <path
         style="fill:#e8e8e8;fill-opacity:1;stroke:none;stroke-width:0.264583px;stroke-linecap:butt;stroke-linejoin:miter;stroke-opacity:1"
         d="M 125.18182,69.077921 108.10635,82.18473 92.2299,61.39189 l 27.44241,0.05135 z"
         id="path3023"
         sodipodi:nodetypes="ccccc" />
      <path
         style="fill:#e8e8e8;fill-opacity:1;stroke:none;stroke-width:0.264583px;stroke-linecap:butt;stroke-linejoin:miter;stroke-opacity:1"
         d="m 86.781287,139.5939 17.232283,19.95969 c 13.95686,-14.41184 14.71824,-40.5802 20.70354,-54.30028 2.2522,-5.16271 12.0506,-12.935617 17.83323,-17.833785 2.88527,-2.279926 6.82204,-3.929294 10.79763,-3.855033 11.02716,1.124719 13.01368,14.003679 7.30582,20.748708 l 13.79229,16.11398 c 26.91386,-18.08936 19.27617,-59.044487 -18.45588,-59.044487 -12.85514,0.04345 -21.75461,3.940889 -29.74344,9.793903 -7.98883,5.853014 -15.20477,11.282351 -17.07343,15.57941 C 97.542054,113.50255 96.685556,128.20931 86.781287,139.5939 Z"
         id="path3025"
         sodipodi:nodetypes="ccsccccczsc" />
      <path
         style="fill:#e8e8e8;fill-opacity:1;stroke:none;stroke-width:0.264583px;stroke-linecap:butt;stroke-linejoin:miter;stroke-opacity:1"
         d="m 59.610389,111.85714 c 13.182828,-10.20579 6.388659,-18.48529 1.271079,-18.48529 -5.565382,0 -11.391704,4.090155 -4.076274,16.09456 L 37.51948,121.17943 C 17.570516,87.19065 43.671875,74.512985 60.662335,74.512985 c 16.99046,0 29.279223,7.97533 29.279223,26.824675 0.02285,12.4743 -8.107502,19.06016 -16.305194,25.5974 l -20.337663,12.44806 c -12.750379,9.17191 -2.184502,29.40084 14.025973,19.987 l 14.376625,17.53247 C 61.785625,189.34674 37.090626,184.79065 26.64935,170.76623 16.208074,156.7418 20.940027,134.41785 39.974025,123.42857 Z"
         id="path3027"
         sodipodi:nodetypes="cscczccccczcc" />
      <path
         style="fill:#e8e8e8;fill-opacity:1;stroke:none;stroke-width:0.264583px;stroke-linecap:butt;stroke-linejoin:miter;stroke-opacity:1"
         d="m 55.753245,142.36364 19.461041,-11.92208 44.934474,53.85506 H 92.146644 Z"
         id="path3029"
         sodipodi:nodetypes="ccccc" />
      <path
         style="fill:#e8e8e8;fill-opacity:1;stroke:none;stroke-width:0.264583px;stroke-linecap:butt;stroke-linejoin:miter;stroke-opacity:1"
         d="m 143.41558,89.240258 -16.12987,16.305192 11.57143,12.09741 13.67533,15.69155 c 11.04926,12.63827 3.3039,18.87525 -1.36818,18.87525 -4.67208,0 -11.21672,-7.10108 -0.91104,-17.73563 l -14.02598,-15.25325 c -26.94659,26.6471 -13.08544,51.74205 14.44925,51.74205 27.53468,0 40.59849,-25.77926 21.84296,-49.11218 l -14.2013,-15.6039 z"
         id="path3031"
         sodipodi:nodetypes="cccczcczccc" />
      <path
         style="fill:#e8e8e8;fill-opacity:1;stroke:none;stroke-width:0.264583px;stroke-linecap:butt;stroke-linejoin:miter;stroke-opacity:1"
         d="M 125.18182,69.077921 108.10635,82.18473 92.2299,61.39189 l 27.44241,0.05135 z"
         id="path3033"
         sodipodi:nodetypes="ccccc" />
    </g>
    <g
       id="g3057"
       transform="translate(190.65661,-82.854051)"
       style="fill:#e8e8e8;fill-opacity:1">
      <path
         style="fill:#e8e8e8;fill-opacity:1;stroke:none;stroke-width:0.264583px;stroke-linecap:butt;stroke-linejoin:miter;stroke-opacity:1"
         d="m 86.781287,139.5939 17.232283,19.95969 c 13.95686,-14.41184 14.71824,-40.5802 20.70354,-54.30028 2.2522,-5.16271 12.0506,-12.935617 17.83323,-17.833785 2.88527,-2.279926 6.82204,-3.929294 10.79763,-3.855033 11.02716,1.124719 13.01368,14.003679 7.30582,20.748708 l 13.79229,16.11398 c 26.91386,-18.08936 19.27617,-59.044487 -18.45588,-59.044487 -12.85514,0.04345 -21.75461,3.940889 -29.74344,9.793903 -7.98883,5.853014 -15.20477,11.282351 -17.07343,15.57941 C 97.542054,113.50255 96.685556,128.20931 86.781287,139.5939 Z"
         id="path3037"
         sodipodi:nodetypes="ccsccccczsc" />
      <path
         style="fill:#e8e8e8;fill-opacity:1;stroke:none;stroke-width:0.264583px;stroke-linecap:butt;stroke-linejoin:miter;stroke-opacity:1"
         d="m 59.610389,111.85714 c 13.182828,-10.20579 6.388659,-18.48529 1.271079,-18.48529 -5.565382,0 -11.391704,4.090155 -4.076274,16.09456 L 37.51948,121.17943 C 17.570516,87.19065 43.671875,74.512985 60.662335,74.512985 c 16.99046,0 29.279223,7.97533 29.279223,26.824675 0.02285,12.4743 -8.107502,19.06016 -16.305194,25.5974 l -20.337663,12.44806 c -12.750379,9.17191 -2.184502,29.40084 14.025973,19.987 l 14.376625,17.53247 C 61.785625,189.34674 37.090626,184.79065 26.64935,170.76623 16.208074,156.7418 20.940027,134.41785 39.974025,123.42857 Z"
         id="path3039"
         sodipodi:nodetypes="cscczccccczcc" />
      <path
         style="fill:#e8e8e8;fill-opacity:1;stroke:none;stroke-width:0.264583px;stroke-linecap:butt;stroke-linejoin:miter;stroke-opacity:1"
         d="m 55.753245,142.36364 19.461041,-11.92208 44.834344,54.10538 -27.901986,-0.25032 z"
         id="path3041"
         sodipodi:nodetypes="ccccc" />
      <path
         style="fill:#e8e8e8;fill-opacity:1;stroke:none;stroke-width:0.264583px;stroke-linecap:butt;stroke-linejoin:miter;stroke-opacity:1"
         d="m 143.41558,89.240258 -16.12987,16.305192 11.57143,12.09741 13.67533,15.69155 c 11.04926,12.63827 3.3039,18.87525 -1.36818,18.87525 -4.67208,0 -11.21672,-7.10108 -0.91104,-17.73563 l -14.02598,-15.25325 c -26.94659,26.6471 -13.08544,51.74205 14.44925,51.74205 27.53468,0 40.59849,-25.77926 21.84296,-49.11218 l -14.2013,-15.6039 z"
         id="path3043"
         sodipodi:nodetypes="cccczcczccc" />
      <path
         style="fill:#e8e8e8;fill-opacity:1;stroke:none;stroke-width:0.264583px;stroke-linecap:butt;stroke-linejoin:miter;stroke-opacity:1"
         d="M 125.18182,69.077921 108.10635,82.18473 92.2299,61.39189 l 27.44241,0.05135 z"
         id="path3045"
         sodipodi:nodetypes="ccccc" />
      <path
         style="fill:#e8e8e8;fill-opacity:1;stroke:none;stroke-width:0.264583px;stroke-linecap:butt;stroke-linejoin:miter;stroke-opacity:1"
         d="m 86.781287,139.5939 17.232283,19.95969 c 13.95686,-14.41184 14.71824,-40.5802 20.70354,-54.30028 2.2522,-5.16271 12.0506,-12.935617 17.83323,-17.833785 2.88527,-2.279926 6.82204,-3.929294 10.79763,-3.855033 11.02716,1.124719 13.01368,14.003679 7.30582,20.748708 l 13.79229,16.11398 c 26.91386,-18.08936 19.27617,-59.044487 -18.45588,-59.044487 -12.85514,0.04345 -21.75461,3.940889 -29.74344,9.793903 -7.98883,5.853014 -15.20477,11.282351 -17.07343,15.57941 C 97.542054,113.50255 96.685556,128.20931 86.781287,139.5939 Z"
         id="path3047"
         sodipodi:nodetypes="ccsccccczsc" />
      <path
         style="fill:#e8e8e8;fill-opacity:1;stroke:none;stroke-width:0.264583px;stroke-linecap:butt;stroke-linejoin:miter;stroke-opacity:1"
         d="m 59.610389,111.85714 c 13.182828,-10.20579 6.388659,-18.48529 1.271079,-18.48529 -5.565382,0 -11.391704,4.090155 -4.076274,16.09456 L 37.51948,121.17943 C 17.570516,87.19065 43.671875,74.512985 60.662335,74.512985 c 16.99046,0 29.279223,7.97533 29.279223,26.824675 0.02285,12.4743 -8.107502,19.06016 -16.305194,25.5974 l -20.337663,12.44806 c -12.750379,9.17191 -2.184502,29.40084 14.025973,19.987 l 14.376625,17.53247 C 61.785625,189.34674 37.090626,184.79065 26.64935,170.76623 16.208074,156.7418 20.940027,134.41785 39.974025,123.42857 Z"
         id="path3049"
         sodipodi:nodetypes="cscczccccczcc" />
      <path
         style="fill:#e8e8e8;fill-opacity:1;stroke:none;stroke-width:0.264583px;stroke-linecap:butt;stroke-linejoin:miter;stroke-opacity:1"
         d="m 143.41558,89.240258 -16.12987,16.305192 11.57143,12.09741 13.67533,15.69155 c 11.04926,12.63827 3.3039,18.87525 -1.36818,18.87525 -4.67208,0 -11.21672,-7.10108 -0.91104,-17.73563 l -14.02598,-15.25325 c -26.94659,26.6471 -13.08544,51.74205 14.44925,51.74205 27.53468,0 40.59849,-25.77926 21.84296,-49.11218 l -14.2013,-15.6039 z"
         id="path3053"
         sodipodi:nodetypes="cccczcczccc" />
      <path
         style="fill:#e8e8e8;fill-opacity:1;stroke:none;stroke-width:0.264583px;stroke-linecap:butt;stroke-linejoin:miter;stroke-opacity:1"
         d="M 125.18182,69.077921 108.10635,82.18473 92.2299,61.39189 l 27.44241,0.05135 z"
         id="path3055"
         sodipodi:nodetypes="ccccc" />
    </g>
  </g>
</svg>
