<?xml version="1.0" encoding="UTF-8" standalone="no"?>
<!-- Created with Inkscape (http://www.inkscape.org/) -->

<svg
   width="135.44115mm"
   height="138.43867mm"
   viewBox="0 0 135.44115 138.43868"
   version="1.1"
   id="svg5"
   inkscape:version="1.1.1 (c3084ef, 2021-09-22)"
   sodipodi:docname="logo_mini.svg"
   inkscape:export-filename="/Users/seanroberts/Documents/DnDCymraeg/logo_mini.png"
   inkscape:export-xdpi="90.43"
   inkscape:export-ydpi="90.43"
   xmlns:inkscape="http://www.inkscape.org/namespaces/inkscape"
   xmlns:sodipodi="http://sodipodi.sourceforge.net/DTD/sodipodi-0.dtd"
   xmlns="http://www.w3.org/2000/svg"
   xmlns:svg="http://www.w3.org/2000/svg">
  <sodipodi:namedview
     id="namedview7"
     pagecolor="#ffffff"
     bordercolor="#666666"
     borderopacity="1.0"
     inkscape:pageshadow="2"
     inkscape:pageopacity="0.0"
     inkscape:pagecheckerboard="0"
     inkscape:document-units="mm"
     showgrid="false"
     inkscape:zoom="0.64"
     inkscape:cx="207.8125"
     inkscape:cy="230.46875"
     inkscape:window-width="1920"
     inkscape:window-height="1027"
     inkscape:window-x="0"
     inkscape:window-y="25"
     inkscape:window-maximized="1"
     inkscape:current-layer="layer1"
     inkscape:snap-global="false"
     fit-margin-top="0"
     fit-margin-left="0"
     fit-margin-right="0"
     fit-margin-bottom="0" />
  <defs
     id="defs2">
    <rect
       x="92.578941"
       y="564.47437"
       width="324.02631"
       height="360.02921"
       id="rect2522" />
  </defs>
  <g
     inkscape:label="Layer 1"
     inkscape:groupmode="layer"
     id="layer1"
     transform="translate(-65.048377,-156.11122)">
    <path
       style="fill:#f20a06;fill-opacity:1;stroke:#000000;stroke-width:0.264583px;stroke-linecap:butt;stroke-linejoin:miter;stroke-opacity:1"
       d="m 99.115397,206.86076 -3.20394,3.87573 -0.878499,3.514 6.821292,-2.32544 1.34358,-0.8785 z"
       id="path32606" />
    <path
       style="fill:#f20a06;fill-opacity:1;stroke:#000000;stroke-width:0.264583px;stroke-linecap:butt;stroke-linejoin:miter;stroke-opacity:1"
       d="m 109.76843,171.88771 -5.26187,-2.48477 -13.739322,-2.48477 -6.13885,-1.31547 5.554197,8.03897 -1.900121,2.63093 7.16199,1.6078 -0.87698,2.33861 1.607794,1.75395 -0.292325,3.9464 -4.677217,2.33861 -2.630934,5.40803 2.192446,0.14617 4.677216,-1.31547 0.730814,3.80024 -2.338607,2.33861 -5.408033,6.43117 2.484771,0.58465 7.454315,-1.60779 13.446996,-27.04016 z"
       id="path28130" />
    <g
       aria-label="&amp;"
       transform="matrix(2.2437572,0,0,2.2437572,-127.53371,-1181.1943)"
       id="g19473"
       style="font-size:96px;line-height:1.25;white-space:pre;shape-inside:url(#rect2522);fill:#f20a06;fill-opacity:1;stroke:#000000;stroke-width:1.15966;stroke-linecap:round;stroke-linejoin:miter;stroke-miterlimit:4;stroke-dasharray:none;stroke-opacity:1">
      <path
         id="path19471"
         style="font-weight:bold;font-family:Dungeon;-inkscape-font-specification:Dungeon;fill:#f20a06;fill-opacity:1;stroke:#000000;stroke-width:9.83433;stroke-linecap:round;stroke-linejoin:miter;stroke-miterlimit:4;stroke-dasharray:none;stroke-opacity:1"
         d="m -479.41602,651.24219 c -23.58068,-0.0914 -45.27351,6.77606 -64.03125,20.40234 -19.83806,13.87096 -30.78809,34.5367 -31.38671,59.08008 -0.57824,24.28634 11.9573,54.20657 33.9375,90.10547 -61.95171,35.98175 -95.28794,81.08933 -94.17774,134.16015 0.58395,30.94935 12.90797,58.73997 35.97461,81.80667 0.0278,0.027 0.0558,0.055 0.084,0.082 23.08296,22.506 50.6392,34.2695 81.07617,34.2695 40.50036,0 79.51167,-19.446 116.24804,-56.3925 9.28475,11.2998 18.39307,21.7582 25.92579,29.7968 l -39.75977,4.8203 c -5.68554,0.6761 -36.33414,13.4974 -18.88281,49.75 1.16458,-7.2953 12.44067,-25.9184 24.30468,-17.2207 14.32173,9.758 24.45972,6.5478 33.13282,-1.205 11.51414,2.4397 21.07828,-3.6799 24.80161,-9.5876 19.45829,13.3481 28.07536,6.7412 43.87417,5.9743 7.31747,5.5143 12.36475,4.7846 17.4707,4.2168 12.71959,4.9783 25.77873,10.8175 31.32617,-2.4102 13.17513,-0.2895 23.96978,8.9421 34.33789,19.8809 2.55587,-15.5313 -2.26245,-28.4111 -12.76172,-41.6719 6.65598,-1.1015 6.66802,-4.251 7.6504,-5.9199 6.90338,0.8119 15.03308,4.7192 23.88867,17.8965 0.0677,-13.961 -1.58478,-38.3224 -19.10352,-46.4434 0.27632,-21.7191 -17.71572,-42.82914 -47.26562,-23.86327 l -41.56641,25.90237 c -25.52734,-9.9652 -24.6059,-22.3336 -34.33984,-33.7344 4.84964,-7.42066 -6.33667,-14.84095 -11.59766,-22.26172 28.09187,-22.78922 54.42495,-47.50954 68.82422,-85.33203 4.59454,14.03048 6.60235,28.44516 26.69141,40.16797 -6.07223,-60.81498 21.92497,-124.80446 -28.83008,-181.08594 4.35337,45.26778 -12.58395,97.16262 -52.09766,135.60352 -1.7582,1.71046 30.3125,-7.11914 30.3125,-7.11914 -16.03481,24.85882 -36.99384,46.35054 -60.39258,66.17578 -4.10766,-5.25545 -6.61383,-8.74265 -9.75483,-11.44984 7.25209,-7.02539 -14.3931,-31.26409 -22.29184,-33.13981 4.69247,-9.39535 -11.24425,-25.84782 -23.7209,-29.76973 9.91551,-13.58937 -9.94933,-23.51932 -21.60743,-27.01367 -3.58794,-5.07199 -7.19336,-10.1676 -10.9375,-15.44727 21.38208,-13.18125 39.26942,-24.79417 48.19922,-33.1914 19.8133,-18.09213 30.52539,-40.09176 30.52539,-64.2832 0,-21.90821 -11.826,-40.74955 -32.54492,-53.8125 -17.62597,-11.72077 -37.65455,-17.68804 -59.24805,-17.70704 -0.76456,-0.0174 -1.52644,-0.0263 -2.28711,-0.0293 z m 0.54883,40.52734 c 10.93914,0 19.38263,3.48037 27.13086,11.22852 7.74807,7.74806 11.22852,16.19164 11.22852,27.13086 0,19.57203 -13.905,39.22511 -43.8418,58.99804 -9.85288,-14.85781 -18.731,-28.83859 -23.81836,-39.12109 -6.08057,-12.29005 -8.39967,-21.43373 -8.24805,-25.22656 0.008,-0.11576 0.014,-0.23167 0.0176,-0.34766 0,-9.66403 3.13513,-16.32933 10.59961,-22.47656 0.0786,-0.0651 0.1561,-0.13148 0.23242,-0.19922 7.73993,-6.8293 16.13916,-9.98633 26.69922,-9.98633 z m -41.75586,162.11914 c 10.76275,16.56107 24.09311,36.59805 40.01172,60.14063 l -1.0332,7.93554 c -12.32168,24.44773 5.20294,56.28681 12.65039,73.19532 4.50626,-13.48894 8.53711,-27.04584 16.34961,-40.0625 7.61043,11.11192 15.55738,22.68264 24.0625,35.00781 -17.95916,17.53803 -38.17006,25.61673 -62.80664,24.24803 -0.028,-1e-4 -0.056,-1e-4 -0.084,0 -20.16752,-0.9603 -37.2439,-10.3475 -52.90234,-30.04686 -0.0162,-0.0104 -0.0325,-0.0208 -0.0488,-0.0312 -14.64004,-18.17388 -21.61381,-37.37393 -21.63281,-58.68359 0.47159,-24.22376 15.22127,-47.9904 45.43359,-71.70313 z m 281.3125,159.21873 c 4.93006,0.072 7.92371,4.2613 10.94727,8.3848 -5.38421,-1.7793 -12.07341,-2.1703 -20.37695,-0.5938 3.92903,-1.405 4.72262,-4.2342 5.50781,-7.0683 1.43836,-0.518 2.73548,-0.7401 3.92187,-0.7227 z"
         transform="matrix(0.11791977,0,0,0.11791977,167.57339,525.51466)"
         sodipodi:nodetypes="sccccscsccccccccccccccccccccccsccccccccsccssssscsccccsssccccccccccssccccc" />
    </g>
    <path
       style="fill:#f20a06;fill-opacity:1;stroke:#000000;stroke-width:0.264583px;stroke-linecap:butt;stroke-linejoin:miter;stroke-opacity:1"
       d="m 99.512922,206.65357 -2.338607,2.7771 c -1.525434,1.88487 -2.174746,3.64459 -2.33861,5.33495 l 3.654076,-2.26553 3.873319,-0.51157 z"
       id="path37346"
       sodipodi:nodetypes="cccccc" />
    <path
       style="fill:#f20a06;fill-opacity:1;stroke:none;stroke-width:0.264583px;stroke-linecap:butt;stroke-linejoin:miter;stroke-opacity:1"
       d="m 107.82107,172.05528 c 1.03663,0.60227 1.5141,1.52287 2.1666,2.3172 l -10.596815,11.1084 -0.803897,1.09622 -0.95006,-5.33495 0.584652,-2.48477 6.28501,-6.06577 z"
       id="path34870"
       sodipodi:nodetypes="cccccccc" />
    <path
       style="fill:#000000;stroke:none;stroke-width:0.264583px;stroke-linecap:butt;stroke-linejoin:miter;stroke-opacity:1"
       d="m 192.93519,274.78648 c -1.83972,-0.46185 -3.42458,-1.43342 -5.99268,-0.4385 l -1.9732,-2.41169 c 0.43951,1.94807 -0.0853,2.62795 1.09622,4.01949 -2.14511,1.72463 -4.02635,-0.24486 -5.99269,-1.02312 -0.72563,1.34551 -2.07137,1.0374 -3.36174,0.87696 -2.77417,0.81182 -3.40552,-0.21305 -4.96955,-0.43849 -0.97442,0.6821 -2.14372,0.68209 -3.50791,0 1.61109,1.06666 2.69099,2.18644 6.13885,3.06943 5.17438,-0.18473 10.24471,-0.30587 11.98536,1.60779 l -0.14616,-1.75395 c 1.81252,-0.37163 2.45735,-1.2437 2.92326,-2.19244 0.56971,-0.20984 1.88323,0.32414 3.21559,0.87696 1.22831,-0.43555 0.60738,-1.39945 0.58465,-2.19244 z"
       id="path20290"
       sodipodi:nodetypes="cccccccccccccc" />
    <path
       style="fill:#000000;stroke:none;stroke-width:0.264583px;stroke-linecap:butt;stroke-linejoin:miter;stroke-opacity:1"
       d="m 187.17929,265.8809 c -1.08449,0.55576 -1.77974,-0.2508 -2.48478,-1.02313 -2.54459,0.99883 -4.09095,0.16758 -5.48111,-0.95005 0.7537,0.76256 0.85397,1.71181 2.85018,2.11937 l -0.29232,1.75395 c -2.183,-0.20401 -3.89152,0.0233 -3.94641,1.75395 -2.72597,0.14736 -4.57872,0.73134 -4.96954,2.04628 l 6.13885,-0.87699 5.1157,-1.60779 c -0.84436,-0.9257 -0.56097,-1.85139 0.14617,-2.77709 l 3.80024,1.46164 z"
       id="path20967"
       sodipodi:nodetypes="cccccccccccc" />
    <path
       style="fill:#000000;stroke:none;stroke-width:0.264583px;stroke-linecap:butt;stroke-linejoin:miter;stroke-opacity:1"
       d="m 133.04541,284.43961 c 1.65115,-1.81145 3.55601,-2.21326 5.4777,-1.86035 0.12705,-1.1767 0.56215,-2.19938 1.24024,-3.10057 0.28364,2.26974 0.17108,4.73758 3.10058,5.68438 1.76142,0.12073 2.65588,-0.91448 3.61735,-1.86034 2.6108,0.94689 3.85799,-0.44384 4.54753,-2.79053 1.27468,0.002 2.54937,-0.0194 3.82406,-0.82682 l 1.24023,-2.06706 c -0.5805,2.21051 -0.68603,4.23631 3.61735,4.54753 l -0.62012,2.27377 -5.16764,-2.27377 -5.58106,2.99722 -3.7207,1.96371 -5.68441,-2.68716 -5.6844,1.55028 -1.24024,2.68718 z"
       id="path22050"
       sodipodi:nodetypes="ccccccccccccccccc" />
    <path
       style="fill:#000000;stroke:none;stroke-width:0.264583px;stroke-linecap:butt;stroke-linejoin:miter;stroke-opacity:1"
       d="m 135.34696,225.67571 c -2.16973,1.6272 -5.39745,2.56524 -8.33129,1.90012 2.8325,-0.0564 5.80538,-1.73501 7.8928,-3.65408 z"
       id="path22384"
       sodipodi:nodetypes="cccc" />
    <path
       style="fill:#000000;stroke:none;stroke-width:0.264583px;stroke-linecap:butt;stroke-linejoin:miter;stroke-opacity:1"
       d="m 139.65877,232.91077 1.1693,2.63094 c -2.28246,1.26107 -3.46315,2.69142 -8.6967,1.82704 3.95728,-0.90848 6.61602,-1.04667 7.5274,-4.45798 z"
       id="path22623"
       sodipodi:nodetypes="cccc" />
    <path
       style="fill:#000000;stroke:none;stroke-width:0.264583px;stroke-linecap:butt;stroke-linejoin:miter;stroke-opacity:1"
       d="m 147.33233,242.84986 c -1.42638,2.37055 -5.43206,2.60371 -8.76978,1.53471 3.03175,0.19266 6.35009,-1.05412 7.8928,-3.65408 z"
       id="path22871"
       sodipodi:nodetypes="cccc" />
    <path
       style="fill:#000000;stroke:none;stroke-width:0.264583px;stroke-linecap:butt;stroke-linejoin:miter;stroke-opacity:1"
       d="m 161.54052,228.09976 c 4.25961,-1.07469 8.03366,-2.87463 9.30176,-5.58105 0.36097,4.48011 1.40759,9.34114 4.23747,15.19287 l -6.09782,-9.61182 z"
       id="path23317"
       sodipodi:nodetypes="ccccc" />
    <path
       style="fill:#000000;stroke:none;stroke-width:0.264583px;stroke-linecap:butt;stroke-linejoin:miter;stroke-opacity:1"
       d="m 130.06958,250.37232 c -2.19711,-3.96358 -3.01785,-3.62413 -4.54753,-5.16764 0.52892,1.92358 2.76653,1.89874 2.06706,5.78775 z"
       id="path25673"
       sodipodi:nodetypes="cccc" />
    <path
       style="fill:#000000;stroke:none;stroke-width:0.264583px;stroke-linecap:butt;stroke-linejoin:miter;stroke-opacity:1"
       d="m 108.90059,172.76283 1.08519,-0.9402 c -2.61862,-4.03812 -26.518594,-4.50374 -27.552263,-8.38546 -0.02148,-0.0817 3.583068,9.85142 5.846059,9.83782 -1.055979,0.8439 -2.329433,1.8719 -4.849453,2.17382 2.559153,2.42924 6.48016,2.86587 10.318746,3.42311 l -0.931525,3.43524 2.387393,0.39241 0.527832,1.68854 c -9.814244,5.3304 -8.476086,9.06902 -9.516625,13.14715 0.737673,-2.19603 4.056921,-2.07551 8.169239,-3.5342 -0.190226,1.06617 0.432218,1.84083 0.740953,2.54236 -4.976585,4.37762 -9.034001,8.6904 -8.846846,13.07379 2.283529,-3.81063 7.700284,-2.38594 10.473298,-4.70358 0.909881,0.24412 6.266382,8.21812 7.041162,9.73691 l 1.95775,-0.92165 c -1.79539,-1.92146 -6.823134,-10.01586 -6.937498,-12.67329 -1.50914,2.08688 -2.875386,3.50086 -8.626319,3.62015 0.92296,-2.95436 3.288938,-5.40916 7.36101,-7.27329 l -0.480073,-7.58671 c -1.754424,2.09385 -4.158042,3.18918 -7.293277,3.15916 -0.563738,-3.26326 3.761516,-5.26527 7.767299,-7.34969 l 0.206627,-5.61255 -2.374369,0.23613 3.712192,-3.74777 c -4.429788,0.80893 -7.951725,-0.33932 -8.603303,-1.0114 0.864153,-0.56014 0.778019,-1.76977 1.065215,-2.72424 -3.459585,-1.23496 -4.482592,-3.45234 -5.386822,-5.71761 11.05899,3.87544 15.124198,0.59813 22.738408,5.71505 z"
       id="path26212"
       sodipodi:nodetypes="ccscccccccccccccccccccccccccc" />
    <path
       style="fill:#000000;fill-opacity:0.254902;stroke:none;stroke-width:0.264583px;stroke-linecap:butt;stroke-linejoin:miter;stroke-opacity:1"
       d="m 136.3701,260.17018 c -24.02817,39.79026 -73.28242,-18.03509 -25.57853,-38.00239 l -5.70036,6.13885 -6.723495,16.07794 7.308155,15.7856 12.42385,5.84652 11.98537,-3.06942 z"
       id="path29144"
       sodipodi:nodetypes="cccccccc" />
    <path
       style="fill:#000000;stroke:none;stroke-width:0.264583px;stroke-linecap:butt;stroke-linejoin:miter;stroke-opacity:1"
       d="m 103.41034,214.34807 7.0889,11.18147 1.38856,-2.11936 -6.21193,-10.15833 z"
       id="path30688"
       sodipodi:nodetypes="ccccc" />
    <path
       style="fill:#000000;stroke:none;stroke-width:0.264583px;stroke-linecap:butt;stroke-linejoin:miter;stroke-opacity:1"
       d="m 132.35062,253.66592 c 3.59319,3.95852 7.38844,7.31088 10.77952,11.87575 l -0.84044,2.81364 c -4.87093,-3.9959 -8.45705,-8.84834 -12.20461,-13.59316 z"
       id="path31166"
       sodipodi:nodetypes="ccccc" />
    <path
       style="fill:#000000;stroke:none;stroke-width:0.264583px;stroke-linecap:butt;stroke-linejoin:miter;stroke-opacity:1"
       d="m 148.64779,247.38091 c 1.96098,2.24117 2.55659,4.48233 2.7771,6.7235 l 2.11936,-1.68087 c 0.40684,-2.24249 -2.00589,-4.99764 -3.58099,-7.60048 z"
       id="path31514"
       sodipodi:nodetypes="ccccc" />
    <path
       style="fill:#000000;stroke:none;stroke-width:0.264583px;stroke-linecap:butt;stroke-linejoin:miter;stroke-opacity:1"
       d="m 153.10577,252.05813 0.43848,0.95006 c -1.39774,1.0901 -3.01081,2.03663 -6.13885,1.9732 2.3544,-0.52014 4.31949,-1.4296 5.70037,-2.92326 z"
       id="path31710"
       sodipodi:nodetypes="cccc" />
    <path
       style="fill:#000000;stroke:none;stroke-width:0.179689px;stroke-linecap:butt;stroke-linejoin:miter;stroke-opacity:1"
       d="m 97.798649,205.73317 c 0.292037,-0.0114 1.470985,-0.56374 1.470985,-0.56374 l 0.897706,1.68565 c -2.748826,2.36694 -3.726547,4.22833 -4.49596,6.03025 1.969447,-1.28577 3.893337,-2.13088 5.70008,-1.84285 l 0.67421,-1.05552 1.4457,2.89575 -1.58275,-0.12359 c -3.892238,-0.27695 -6.152366,2.24959 -8.587994,4.5372 0.168697,-2.66134 0.565742,-6.10708 5.044043,-10.28627 z"
       id="path31996"
       sodipodi:nodetypes="ccccccccccc" />
    <path
       style="fill:#000000;stroke:none;stroke-width:0.298236px;stroke-linecap:butt;stroke-linejoin:miter;stroke-opacity:1"
       d="m 102.27543,177.42209 c 1.67891,-0.26847 2.93065,-0.63014 3.1892,-1.20833 -5.17175,-1.23856 -6.797322,-1.76161 -9.600867,-2.52236 0.07522,-0.55062 0.925981,-1.22146 0.04641,-1.62406 -2.645547,-0.52181 -4.357609,-1.67172 -6.133851,-2.77844 2.457842,1.12745 4.998229,1.93509 8.922567,2.16975 0.01575,0.59716 0.163715,1.11189 -0.714778,1.83686 l 7.348369,1.0363 c 1.44699,0.0878 4.86345,3.04168 -0.4916,4.11626 z"
       id="path33698"
       sodipodi:nodetypes="cccccccccc" />
    <path
       style="fill:#000000;stroke:none;stroke-width:0.264583px;stroke-linecap:butt;stroke-linejoin:miter;stroke-opacity:1"
       d="m 119.93819,208.51526 c 1.34243,1.90794 2.35208,3.58031 3.88702,6.06576 l 3.48278,0.57095 -6.35809,-9.93909 z"
       id="path36311"
       sodipodi:nodetypes="ccccc" />
    <path
       style="fill:#000000;fill-opacity:0.250545;stroke:none;stroke-width:0.264583px;stroke-linecap:butt;stroke-linejoin:miter;stroke-opacity:1"
       d="m 114.34847,182.46359 c 19.20171,-19.30219 36.10153,19.07838 7.16199,24.1169 l 6.28501,-5.99269 2.33861,-4.67721 1.60779,-5.40803 -1.1693,-4.96955 -3.06943,-3.21558 -6.57734,-1.90012 z"
       id="path38688"
       sodipodi:nodetypes="ccccccccc" />
    <path
       style="fill:#000000;fill-opacity:0.248366;stroke:none;stroke-width:0.264583px;stroke-linecap:butt;stroke-linejoin:miter;stroke-opacity:1"
       d="m 98.24143,185.72352 c 1.181149,4.18012 0.913754,8.63148 2.59689,12.88716 5.35677,13.54414 14.79222,27.10771 23.71903,40.21263 0.35363,0.51914 -1.19111,3.04796 0.15255,6.27099 1.16634,-2.01821 2.67155,-2.17322 3.56441,-0.90349 7.59101,10.79516 14.99384,20.06714 23.13742,30.84105 l -14.67611,-13.84929 -8.06152,-10.12858 -3.7207,9.50847 -5.37435,-13.64258 2.27376,-5.73608 -22.324217,-38.29224 -3.307292,-10.12858 z"
       id="path39356"
       sodipodi:nodetypes="cscccccccccccc" />
  </g>
</svg>
